<svg width="20" height="20" viewBox="0 0 20 20" fill="none" xmlns="http://www.w3.org/2000/svg">
<g clip-path="url(#clip0_150039_4)">
<path fill-rule="evenodd" clip-rule="evenodd" d="M1.875 8.125C1.875 4.67322 4.67322 1.875 8.125 1.875C11.5768 1.875 14.375 4.67322 14.375 8.125C14.375 11.5768 11.5768 14.375 8.125 14.375C4.67322 14.375 1.875 11.5768 1.875 8.125ZM8.125 0C3.63769 0 0 3.63769 0 8.125C0 12.6124 3.63769 16.25 8.125 16.25C10.0309 16.25 11.7835 15.5938 13.1691 14.495L17.4621 18.7879L18.125 19.4509L19.4509 18.125L18.7879 17.4621L14.495 13.1691C15.5938 11.7835 16.25 10.0309 16.25 8.125C16.25 3.63769 12.6124 0 8.125 0Z" fill="#AB8BFF"/>
</g>
<defs>
<clipPath id="clip0_150039_4">
<rect width="20" height="20" fill="white"/>
</clipPath>
</defs>
</svg>
