<svg width="19" height="18" viewBox="0 0 19 18" fill="none" xmlns="http://www.w3.org/2000/svg">
<path d="M10.9644 2.63248L12.2844 5.27248C12.4644 5.63998 12.9444 5.99248 13.3494 6.05998L15.7419 6.45748C17.2719 6.71248 17.6319 7.82248 16.5294 8.91748L14.6694 10.7775C14.3544 11.0925 14.1819 11.7 14.2794 12.135L14.8119 14.4375C15.2319 16.26 14.2644 16.965 12.6519 16.0125L10.4094 14.685C10.0044 14.445 9.33692 14.445 8.92442 14.685L6.68192 16.0125C5.07692 16.965 4.10192 16.2525 4.52192 14.4375L5.05442 12.135C5.15192 11.7 4.97942 11.0925 4.66442 10.7775L2.80442 8.91748C1.70942 7.82248 2.06192 6.71248 3.59192 6.45748L5.98442 6.05998C6.38192 5.99248 6.86192 5.63998 7.04192 5.27248L8.36192 2.63248C9.08192 1.19998 10.2519 1.19998 10.9644 2.63248Z" fill="#FFCD1A"/>
</svg>
